<?xml version="1.0" encoding="iso-8859-1"?>
<!-- Generator: Adobe Illustrator 19.0.0, SVG Export Plug-In . SVG Version: 6.00 Build 0)  -->
<svg version="1.1" id="Layer_1" xmlns="http://www.w3.org/2000/svg" xmlns:xlink="http://www.w3.org/1999/xlink" x="0px" y="0px"
	 viewBox="0 0 512 512" style="enable-background:new 0 0 512 512;" xml:space="preserve">
<g>
	<g>
		<path d="M322.783,55.652c-23.036,0-45.469,4.078-66.783,12.13c-21.314-8.052-43.747-12.13-66.783-12.13
			C84.883,55.652,0,140.535,0,244.87s84.883,189.217,189.217,189.217c16.878,0,30.874,7.442,42.119,13.423
			c8.917,4.742,16.618,8.838,25.036,8.838c8.116,0,15.536-4.008,24.129-8.648c11.228-6.065,25.203-13.612,42.282-13.612
			C427.117,434.087,512,349.204,512,244.87S427.117,55.652,322.783,55.652z M33.391,244.87c0-50.6,24.249-95.637,61.729-124.122
			c41.119,25.259,66.271,69.809,66.271,118.557c0,52.087-28.82,99.214-74.326,123.142C54.201,333.854,33.391,291.748,33.391,244.87z
			 M322.783,400.696c-25.521,0-45.157,10.606-58.152,17.624c-2.743,1.481-6.301,3.405-8.416,4.312
			c-2.264-0.914-6.189-3.001-9.199-4.602c-12.979-6.903-32.593-17.333-57.798-17.333c-25.834,0-50.215-6.327-71.688-17.5
			c47.742-31.559,77.253-85.192,77.253-143.891c0-54.585-25.429-104.927-67.901-137.234c19.1-8.37,40.183-13.027,62.336-13.027
			c20.913,0,41.205,4.071,60.315,12.102l6.468,2.718l6.468-2.718c19.11-8.031,39.403-12.102,60.315-12.102
			c22.153,0,43.236,4.657,62.336,13.027c-42.473,32.306-67.901,82.648-67.901,137.234c0,58.51,29.58,112.272,77.294,143.87
			C373.029,394.361,348.633,400.696,322.783,400.696z M424.927,362.453c-45.458-23.942-74.318-71.235-74.318-123.148
			c0-48.748,25.151-93.298,66.269-118.557c37.482,28.485,61.731,73.522,61.731,124.122
			C478.609,291.752,457.796,333.862,424.927,362.453z"/>
	</g>
</g>
<g>
	<g>
		<path d="M276.035,239.304c-13.357,0-26.713,0-40.07,0c-11.3,0.119-18.285,7.625-15.583,16.696
			c5.85,17.752,21.526,37.324,35.617,37.622c14.091-0.298,29.767-19.87,35.617-37.622
			C294.32,246.929,287.336,239.423,276.035,239.304z"/>
	</g>
</g>
<g>
	<g>
		<path d="M94.609,222.609c-12.27,0-22.256,9.984-22.261,22.261c0,12.275,9.985,22.261,22.259,22.261h0.002
			c12.275,0,22.261-9.986,22.261-22.261S106.883,222.609,94.609,222.609z"/>
	</g>
</g>
<g>
	<g>
		<path d="M417.391,222.609c-12.27,0-22.256,9.984-22.261,22.261c0,12.275,9.985,22.261,22.259,22.261h0.002
			c12.275,0,22.261-9.986,22.261-22.261S429.666,222.609,417.391,222.609z"/>
	</g>
</g>
<g>
	<g>
		<rect x="200.348" y="322.783" width="111.304" height="33.391"/>
	</g>
</g>
</svg>
