<?xml version="1.0" encoding="iso-8859-1"?>
<!-- Generator: Adobe Illustrator 18.0.0, SVG Export Plug-In . SVG Version: 6.00 Build 0)  -->
<!DOCTYPE svg PUBLIC "-//W3C//DTD SVG 1.1//EN" "http://www.w3.org/Graphics/SVG/1.1/DTD/svg11.dtd">
<svg version="1.1" id="Capa_1" xmlns="http://www.w3.org/2000/svg" xmlns:xlink="http://www.w3.org/1999/xlink" x="0px" y="0px"
	 viewBox="0 0 512 512" xml:space="preserve" width="64" height="64">
<path d="M441.333,210.667H413.32c-3.87-35.745-17.991-68.41-39.364-95.005l19.816-19.816c7.81-7.811,7.81-20.474,0-28.284
	c-7.811-7.811-20.475-7.811-28.285,0l-19.816,19.816c-26.595-21.373-59.26-35.493-95.005-39.363V20c0-11.046-8.954-20-20-20
	s-20,8.954-20,20v28.013c-35.745,3.87-68.411,17.991-95.006,39.364L95.845,67.561c-7.811-7.811-20.474-7.811-28.284,0
	s-7.811,20.474,0,28.284l19.816,19.816c-21.373,26.595-35.494,59.26-39.364,95.006H20c-11.046,0-20,8.954-20,20s8.954,20,20,20
	h28.013c3.87,35.745,17.991,68.411,39.364,95.006l-19.816,19.816c-7.811,7.811-7.811,20.474,0,28.284
	c3.905,3.905,9.023,5.858,14.142,5.858s10.237-1.953,14.142-5.858l19.816-19.816c26.595,21.373,59.26,35.494,95.006,39.364v28.013
	c0,11.046,8.954,20,20,20s20-8.954,20-20V413.32c35.745-3.87,68.411-17.991,95.006-39.363l19.816,19.816
	c3.905,3.905,9.024,5.858,14.143,5.858s10.237-1.953,14.143-5.858c7.81-7.811,7.81-20.474,0-28.284l-19.816-19.816
	c21.373-26.595,35.493-59.26,39.363-95.005h28.013c11.046,0,20-8.954,20-20S452.379,210.667,441.333,210.667z M373.026,210.667
	h-55.882c-2.235-9.705-6.067-18.798-11.196-26.996l39.524-39.524C360.238,163.655,369.672,186.43,373.026,210.667z M317.187,115.861
	l-39.524,39.524c-8.198-5.129-17.292-8.961-26.996-11.196V88.307C274.903,91.661,297.678,101.095,317.187,115.861z M210.667,88.307
	v55.882c-9.705,2.235-18.798,6.067-26.997,11.196l-39.524-39.524C163.655,101.095,186.43,91.661,210.667,88.307z M115.861,144.145
	l39.524,39.524c-5.129,8.199-8.961,17.292-11.196,26.997H88.307C91.661,186.43,101.095,163.654,115.861,144.145z M88.307,250.667
	h55.882c2.235,9.705,6.067,18.798,11.196,26.997l-39.524,39.525C101.095,297.679,91.661,274.903,88.307,250.667z M144.145,345.472
	l39.525-39.524c8.199,5.129,17.292,8.961,26.997,11.196v55.882C186.43,369.672,163.654,360.238,144.145,345.472z M250.667,373.026
	v-55.882c9.705-2.235,18.798-6.067,26.997-11.196l39.524,39.524C297.678,360.238,274.903,369.672,250.667,373.026z M345.472,317.188
	l-39.525-39.524c5.129-8.199,8.961-17.292,11.196-26.997h55.882C369.672,274.903,360.238,297.679,345.472,317.188z"/>
</svg>
