<?xml version="1.0" encoding="iso-8859-1"?>
<!-- Generator: Adobe Illustrator 19.0.0, SVG Export Plug-In . SVG Version: 6.00 Build 0)  -->
<svg version="1.1" id="Capa_1" xmlns="http://www.w3.org/2000/svg" xmlns:xlink="http://www.w3.org/1999/xlink" x="0px" y="0px"
	 viewBox="0 0 487.702 487.702" style="enable-background:new 0 0 487.702 487.702;" xml:space="preserve">
<g>
	<path d="M91.702,243.751c0,31,25.1,56.2,56.2,56.2s56.2-25.1,56.2-56.2s-25.1-56.2-56.2-56.2S91.702,212.751,91.702,243.751z
		 M152.802,210.151c0,3.4,0,3.4,3.4,4c2.6,0.4,5.1,1.2,7.5,2.2c1.3,0.6,1.8,1.5,1.4,2.9c-0.6,2.1-1.2,4.2-1.8,6.2s-1.3,2.2-3.1,1.3
		c-3.8-1.8-7.7-2.6-11.9-2.4c-1.1,0.1-2.2,0.2-3.2,0.6c-3.6,1.6-4.2,5.5-1.1,8c1.5,1.2,3.3,2.1,5.2,2.9c3.2,1.3,6.4,2.6,9.4,4.3
		c9.6,5.3,12.2,17.4,5.4,25.7c-2.5,3-5.6,5-9.4,6c-1.6,0.4-2.3,1.3-2.3,3c0.1,1.7,0,3.3,0,5c0,1.5-0.8,2.3-2.2,2.3
		c-1.8,0-3.6,0-5.4,0c-1.6,0-2.3-0.9-2.3-2.4c0-1.2,0-2.4,0-3.6c0-2.7-0.1-2.8-2.7-3.2c-3.3-0.5-6.5-1.3-9.5-2.7
		c-2.4-1.1-2.6-1.7-1.9-4.2c0.5-1.8,1-3.7,1.6-5.5c0.7-2.1,1.2-2.4,3.2-1.4c3.3,1.7,6.9,2.7,10.6,3.2c2.4,0.3,4.7,0.1,6.9-0.9
		c4.1-1.8,4.8-6.6,1.3-9.5c-1.2-1-2.5-1.7-3.9-2.3c-3.6-1.6-7.4-2.8-10.8-4.9c-5.5-3.3-9.1-7.9-8.7-14.6c0.5-7.6,4.8-12.4,11.8-14.9
		c2.9-1,2.9-1,2.9-4c0-1,0-2,0-3.1c0.1-2.3,0.4-2.7,2.7-2.7c0.7,0,1.4,0,2.1,0C152.802,205.251,152.802,205.251,152.802,210.151z
		 M71.302,234.051c1.9,0,3.5,1.6,3.5,3.5v12.5c0,1.9-1.6,3.5-3.5,3.5h-21.7c-1.9,0-3.5-1.6-3.5-3.5v-12.5c0-1.9,1.6-3.5,3.5-3.5
		L71.302,234.051L71.302,234.051z M398.502,317.451v12.7c0,3-2.4,5.4-5.4,5.4h-69.9c-3,0-5.4-2.4-5.4-5.4v-12.7c0-3,2.4-5.4,5.4-5.4
		h69.9C396.102,312.151,398.502,314.551,398.502,317.451z M398.502,285.551v12.7c0,3-2.4,5.4-5.4,5.4h-69.9c-3,0-5.4-2.4-5.4-5.4
		v-12.7c0-3,2.4-5.4,5.4-5.4h69.9C396.102,280.151,398.502,282.551,398.502,285.551z M398.502,253.551v12.7c0,3-2.4,5.4-5.4,5.4
		h-69.9c-3,0-5.4-2.4-5.4-5.4v-12.7c0-3,2.4-5.4,5.4-5.4h69.9C396.102,248.251,398.502,250.651,398.502,253.551z M398.502,221.651
		v12.7c0,3-2.4,5.4-5.4,5.4h-69.9c-3,0-5.4-2.4-5.4-5.4v-12.7c0-3,2.4-5.4,5.4-5.4h69.9
		C396.102,216.251,398.502,218.651,398.502,221.651z M7.002,152.151h214.3l0,0c-0.7,1.7-1.1,3.5-1.1,5.4v12.7l0,0
		c0,0.7,0.1,1.4,0.2,2.1c0.1,0.6,0.2,1.1,0.4,1.6l0,0h-168.9c0.3,1.5,0.4,3.1,0.4,4.8c0,14.3-11.6,26-26,26c-1.6,0-3.1-0.1-4.6-0.4
		v78.8c1.5-0.3,3-0.4,4.6-0.4c14.3,0,26,11.6,26,26c0,1.6-0.2,3.2-0.4,4.8h168.9c-0.4,1.2-0.6,2.5-0.6,3.8v12.7
		c0,1.9,0.4,3.7,1.1,5.4H7.002c-3.9,0-7-3.2-7-7v-169.3C-0.098,155.351,3.102,152.151,7.002,152.151z M309.302,317.251v12.7
		c0,3-2.4,5.4-5.4,5.4h-69.9c-3,0-5.4-2.4-5.4-5.4v-12.7c0-3,2.4-5.4,5.4-5.4h69.9C306.902,311.951,309.302,314.351,309.302,317.251
		z M309.302,285.351v12.7c0,3-2.4,5.4-5.4,5.4h-69.9c-3,0-5.4-2.4-5.4-5.4v-12.7c0-3,2.4-5.4,5.4-5.4h69.9
		C306.902,279.951,309.302,282.351,309.302,285.351z M309.302,253.351v12.7c0,3-2.4,5.4-5.4,5.4h-69.9c-3,0-5.4-2.4-5.4-5.4v-12.7
		c0-3,2.4-5.4,5.4-5.4h69.9C306.902,247.951,309.302,250.451,309.302,253.351z M309.302,221.451v12.7c0,3-2.4,5.4-5.4,5.4h-69.9
		c-3,0-5.4-2.4-5.4-5.4v-12.7c0-3,2.4-5.4,5.4-5.4h69.9C306.902,216.051,309.302,218.451,309.302,221.451z M309.302,189.451v12.7
		c0,3-2.4,5.4-5.4,5.4h-69.9c-3,0-5.4-2.4-5.4-5.4v-12.7c0-3,2.4-5.4,5.4-5.4h69.9C306.902,184.051,309.302,186.551,309.302,189.451
		z M309.302,157.551v12.7c0,3-2.4,5.4-5.4,5.4h-69.9c-3,0-5.4-2.4-5.4-5.4v-12.7c0-3,2.4-5.4,5.4-5.4h69.9
		C306.902,152.151,309.302,154.551,309.302,157.551z M487.702,317.451v12.7c0,3-2.4,5.4-5.4,5.4h-69.9c-3,0-5.4-2.4-5.4-5.4v-12.7
		c0-3,2.4-5.4,5.4-5.4h69.9C485.302,312.151,487.702,314.551,487.702,317.451z M487.702,285.551v12.7c0,3-2.4,5.4-5.4,5.4h-69.9
		c-3,0-5.4-2.4-5.4-5.4v-12.7c0-3,2.4-5.4,5.4-5.4h69.9C485.302,280.151,487.702,282.551,487.702,285.551z"/>
</g>
<g>
</g>
<g>
</g>
<g>
</g>
<g>
</g>
<g>
</g>
<g>
</g>
<g>
</g>
<g>
</g>
<g>
</g>
<g>
</g>
<g>
</g>
<g>
</g>
<g>
</g>
<g>
</g>
<g>
</g>
</svg>
