<?xml version="1.0" encoding="iso-8859-1"?>
<!-- Generator: Adobe Illustrator 19.0.0, SVG Export Plug-In . SVG Version: 6.00 Build 0)  -->
<svg version="1.1" id="Layer_1" xmlns="http://www.w3.org/2000/svg" xmlns:xlink="http://www.w3.org/1999/xlink" x="0px" y="0px"
	 viewBox="0 0 512 512" style="enable-background:new 0 0 512 512;" xml:space="preserve" width="64" height="64">
<g>
	<g>
		<g>
			<path d="M256,469.333c-117.632,0-213.333-95.701-213.333-213.333S138.368,42.667,256,42.667
				c98.667,0,188.715,65.259,214.144,155.136c3.179,11.349,15.125,17.835,26.325,14.72c11.349-3.2,17.92-14.997,14.72-26.325
				C480.683,78.293,373.355,0,256,0C114.837,0,0,114.837,0,256s114.837,256,256,256c11.797,0,21.333-9.557,21.333-21.333
				S267.797,469.333,256,469.333z"/>
			<path d="M256,128c-11.797,0-21.333,9.557-21.333,21.333v85.333H192c-11.797,0-21.333,9.557-21.333,21.333
				s9.536,21.333,21.333,21.333h64c11.797,0,21.333-9.557,21.333-21.333V149.333C277.333,137.557,267.797,128,256,128z"/>
			<path d="M448,341.333h-21.333v-42.667h42.667c11.797,0,21.333-9.557,21.333-21.333S481.131,256,469.333,256h-42.667v-21.333
				c0-11.776-9.536-21.333-21.333-21.333S384,222.891,384,234.667V256h-21.333c-35.285,0-64,28.715-64,64s28.715,64,64,64H384
				v42.667h-42.667C329.536,426.667,320,436.224,320,448s9.536,21.333,21.333,21.333H384v21.333
				c0,11.776,9.536,21.333,21.333,21.333s21.333-9.557,21.333-21.333v-21.333H448c35.285,0,64-28.715,64-64
				C512,370.048,483.285,341.333,448,341.333z M384,341.333h-21.333c-11.776,0-21.333-9.579-21.333-21.333
				s9.557-21.333,21.333-21.333H384V341.333z M448,426.667h-21.333V384H448c11.776,0,21.333,9.579,21.333,21.333
				C469.333,417.088,459.776,426.667,448,426.667z"/>
		</g>
	</g>
</g>
<g>
</g>
<g>
</g>
<g>
</g>
<g>
</g>
<g>
</g>
<g>
</g>
<g>
</g>
<g>
</g>
<g>
</g>
<g>
</g>
<g>
</g>
<g>
</g>
<g>
</g>
<g>
</g>
<g>
</g>
</svg>
