<?xml version="1.0" standalone="no"?>
<!DOCTYPE svg PUBLIC "-//W3C//DTD SVG 20010904//EN"
 "http://www.w3.org/TR/2001/REC-SVG-20010904/DTD/svg10.dtd">
<svg version="1.0" xmlns="http://www.w3.org/2000/svg"
 width="700.000000pt" height="700.000000pt" viewBox="0 0 700.000000 700.000000"
 preserveAspectRatio="xMidYMid meet">
<metadata>
Created by potrace 1.14, written by Peter Selinger 2001-2017
</metadata>
<g transform="translate(0.000000,700.000000) scale(0.100000,-0.100000)"
fill="#000000" stroke="none">
<path d="M2439 6236 c-2 -2 -46 -6 -96 -10 -51 -4 -114 -11 -140 -15 -27 -5
-68 -12 -93 -16 -46 -6 -254 -58 -300 -75 -14 -5 -72 -25 -130 -46 -332 -118
-672 -342 -944 -619 -409 -417 -665 -965 -724 -1550 -10 -91 -8 -471 2 -535 3
-19 11 -69 16 -110 12 -88 58 -298 71 -321 4 -9 10 -27 13 -40 16 -80 107
-305 183 -448 363 -692 1051 -1202 1808 -1340 170 -31 251 -39 445 -46 229 -8
312 -32 599 -176 218 -110 280 -130 379 -124 82 4 123 20 348 134 262 134 344
158 573 166 181 7 322 21 411 39 8 1 33 6 55 10 373 72 744 240 1070 486 87
65 366 331 418 399 185 237 294 416 390 643 91 214 160 462 183 663 3 28 8 61
11 75 3 14 6 120 8 235 3 263 -15 428 -72 660 -175 711 -652 1320 -1303 1663
-216 114 -481 211 -675 246 -233 43 -316 51 -535 51 -309 0 -522 -34 -809
-127 l-105 -34 -65 24 c-116 42 -319 92 -456 111 -44 7 -93 14 -110 17 -36 6
-421 15 -426 10z m318 -461 c223 -18 448 -73 658 -160 l85 -35 62 26 c434 183
864 222 1335 120 90 -19 338 -100 356 -115 4 -4 -30 -39 -75 -78 -323 -274
-554 -605 -698 -995 -60 -164 -113 -383 -125 -524 -4 -38 -8 -80 -11 -94 -5
-28 -5 -337 1 -390 5 -59 15 -134 19 -155 2 -11 7 -40 11 -65 18 -120 100
-395 151 -510 181 -402 439 -726 781 -978 94 -69 96 -63 -27 -116 -272 -117
-510 -171 -798 -181 -336 -12 -475 -48 -788 -206 l-190 -96 -196 97 c-324 159
-453 193 -788 205 -168 6 -276 20 -426 55 -139 32 -322 98 -437 157 l-49 24
59 41 c316 224 583 538 753 884 33 67 60 128 60 136 0 8 4 18 9 24 27 27 118
339 136 464 4 24 8 47 10 50 2 3 6 39 10 79 4 41 9 84 11 95 6 29 6 343 0 386
-3 19 -8 62 -12 95 -9 78 -9 82 -19 135 -11 68 -12 69 -35 160 -120 477 -390
905 -773 1228 l-78 66 51 23 c79 35 265 90 375 112 132 26 159 29 295 37 63 4
116 7 117 8 3 2 107 -2 180 -9z m-1287 -544 c74 -55 233 -208 299 -286 271
-325 432 -767 435 -1195 0 -120 -10 -295 -19 -310 -2 -3 -6 -23 -9 -45 -13
-78 -16 -93 -41 -181 -46 -159 -110 -311 -193 -454 -106 -184 -303 -405 -477
-538 -93 -71 -252 -172 -271 -172 -7 0 -57 44 -112 99 -307 305 -521 712 -591
1126 -6 33 -13 74 -16 90 -10 57 -18 211 -17 315 3 229 34 415 108 640 73 221
188 439 332 630 67 88 262 288 345 354 l58 46 47 -32 c26 -17 81 -56 122 -87z
m4290 70 c263 -210 504 -540 633 -866 32 -82 74 -207 82 -245 2 -8 10 -46 19
-84 16 -69 21 -96 31 -186 3 -25 8 -62 11 -83 7 -54 7 -278 0 -367 -35 -408
-192 -802 -452 -1136 -73 -94 -259 -284 -278 -284 -17 0 -174 99 -263 166
-410 308 -694 818 -740 1329 -12 132 -6 388 12 468 2 12 6 36 9 52 37 265 190
604 380 845 59 75 208 227 281 287 84 68 209 151 220 145 6 -3 30 -21 55 -41z"/>
<path d="M3155 3719 c-22 -5 -56 -21 -75 -34 -78 -54 -92 -130 -44 -243 110
-262 311 -457 466 -453 142 3 316 159 432 387 42 84 64 159 59 199 -7 49 -47
100 -100 126 -47 24 -53 24 -373 26 -180 1 -343 -3 -365 -8z"/>
<path d="M2740 2359 l0 -229 760 0 760 0 -2 228 -3 227 -757 1 -758 1 0 -228z"/>
<path d="M1233 3949 c-88 -16 -182 -92 -219 -176 -62 -146 3 -320 148 -392 55
-28 72 -32 135 -30 119 3 208 58 263 161 30 56 34 72 34 138 -1 198 -166 334
-361 299z"/>
<path d="M5642 3949 c-242 -52 -319 -358 -133 -527 141 -127 382 -79 466 93
96 196 -31 423 -246 438 -30 2 -69 0 -87 -4z"/>
</g>
</svg>
