<?xml version="1.0" encoding="UTF-8"?>
<svg xmlns="http://www.w3.org/2000/svg" xmlns:xlink="http://www.w3.org/1999/xlink" width="24px" height="24px" viewBox="0 0 24 24" version="1.1">
<g id="surface1">
<path style=" stroke:none;fill-rule:nonzero;fill:rgb(100%,100%,100%);fill-opacity:1;" d="M 20.316406 2.136719 C 18.789062 1.230469 17.148438 0.5625 15.433594 0.179688 C 15.402344 0.175781 15.371094 0.191406 15.351562 0.230469 C 15.140625 0.714844 14.910156 1.34375 14.746094 1.84375 C 12.902344 1.484375 11.066406 1.484375 9.257812 1.84375 C 9.09375 1.335938 8.851562 0.714844 8.640625 0.230469 C 8.625 0.195312 8.59375 0.175781 8.5625 0.179688 C 6.847656 0.5625 5.207031 1.230469 3.675781 2.136719 C 3.664062 2.144531 3.652344 2.15625 3.644531 2.171875 C 0.535156 8.171875 -0.320312 14.027344 0.0976562 19.808594 C 0.101562 19.835938 0.113281 19.863281 0.128906 19.878906 C 2.183594 21.824219 4.171875 23.007812 6.125 23.789062 C 6.15625 23.800781 6.1875 23.789062 6.207031 23.753906 C 6.667969 22.941406 7.082031 22.082031 7.433594 21.179688 C 7.453125 21.128906 7.433594 21.066406 7.390625 21.042969 C 6.738281 20.722656 6.117188 20.335938 5.519531 19.890625 C 5.472656 19.855469 5.46875 19.769531 5.511719 19.726562 C 5.636719 19.605469 5.765625 19.480469 5.882812 19.351562 C 5.90625 19.328125 5.9375 19.324219 5.960938 19.335938 C 9.890625 21.652344 14.140625 21.652344 18.023438 19.335938 C 18.046875 19.320312 18.078125 19.328125 18.101562 19.351562 C 18.222656 19.476562 18.347656 19.605469 18.472656 19.726562 C 18.519531 19.769531 18.515625 19.855469 18.46875 19.890625 C 17.871094 20.34375 17.25 20.722656 16.59375 21.042969 C 16.550781 21.0625 16.53125 21.128906 16.554688 21.179688 C 16.914062 22.082031 17.324219 22.941406 17.777344 23.753906 C 17.796875 23.789062 17.832031 23.800781 17.863281 23.789062 C 19.824219 23.007812 21.8125 21.824219 23.867188 19.878906 C 23.882812 19.863281 23.894531 19.835938 23.898438 19.808594 C 24.398438 13.125 23.058594 7.320312 20.347656 2.175781 C 20.339844 2.15625 20.332031 2.144531 20.316406 2.136719 Z M 8.019531 16.289062 C 6.835938 16.289062 5.863281 14.886719 5.863281 13.164062 C 5.863281 11.445312 6.820312 10.042969 8.019531 10.042969 C 9.230469 10.042969 10.195312 11.457031 10.175781 13.164062 C 10.175781 14.886719 9.222656 16.289062 8.019531 16.289062 Z M 15.996094 16.289062 C 14.8125 16.289062 13.839844 14.886719 13.839844 13.164062 C 13.839844 11.445312 14.792969 10.042969 15.996094 10.042969 C 17.207031 10.042969 18.171875 11.457031 18.152344 13.164062 C 18.152344 14.886719 17.207031 16.289062 15.996094 16.289062 Z M 15.996094 16.289062 "/>
</g>
</svg>
